<svg width="250" height="70" viewBox="0 0 250 70" xmlns="http://www.w3.org/2000/svg">
    <defs>
        <radialGradient cx="49.676%" cy="24.889%" fx="49.676%" fy="24.889%" r="81.477%" gradientTransform="matrix(1 0 0 .78862 0 .053)" id="a">
            <stop stop-color="#F05B40" offset="0%"/>
            <stop stop-color="#EA2127" offset="100%"/>
        </radialGradient>
    </defs>
    <g fill-rule="nonzero" fill="none">
        <path d="M54.44 5.808v-.264A5.407 5.407 0 0 0 49.053.282H5.573A5.406 5.406 0 0 0 .205 5.336H.18s-.402 30.959 0 37.116c.402 6.156 6.891 14.67 15.683 18.524 8.568 3.758 11.295 8.334 11.426 8.562h.017c.219-.377 3.007-4.858 11.432-8.55 8.8-3.856 15.3-12.372 15.703-18.529.379-5.829.038-33.684 0-36.651z" fill="url(#a)"/>
        <path d="M13.185 41.433C6.332 41.392.055 38.741.055 38.741l-.05-.171s-.5 7.524 7.87 11.157c8.37 3.633 18.026-1.938 18.026-1.938-6.257-5.15-5.863-6.312-12.716-6.356zM27.223 20.552s-9.28 6.238-8.607 13.461c.672 7.224 7.8 13.003 7.8 13.003h2.282s7.637-6.901 7.329-13.33c-.396-8.405-8.804-13.134-8.804-13.134z" fill="#FFF"/>
        <path d="M18.592 39.133c-4.071-10.155 3.367-16.057 3.367-16.057l-4.322-5.903s-4.372 3.26-4.675 10.905c-.301 7.602 5.63 11.055 5.63 11.055z" fill="#FFF"/>
        <path d="M15.203 38.57c-3.9-3.254-3.694-10.549-3.694-10.549l-7.438-4.09C2.532 37.038 15.203 38.57 15.203 38.57z" fill="#FFF"/>
        <path d="M9.009 37.43c-4.516-2.45-7.05-7.306-7.05-7.306C.036 38.09 9.01 37.43 9.01 37.43zM36.025 39.133s5.931-3.453 5.63-11.055c-.303-7.645-4.676-10.905-4.676-10.905l-4.321 5.903s7.44 5.902 3.367 16.057zM39.977 38.57s12.67-1.53 11.132-14.64l-7.438 4.09s.205 7.296-3.694 10.55z" fill="#FFF"/>
        <path d="M46.171 37.43s8.97.66 7.05-7.306c0 0-2.542 4.855-7.05 7.306zM55.174 38.57l-.05.17s-5.691 2.69-12.556 2.69c-7.503 0-7.99 1.503-13.289 6.4 0 0 9.624 5.522 18.014 1.89 8.391-3.632 7.881-11.15 7.881-11.15zM31.848 12.078c.473-.096.942-.216 1.403-.359.34-.104.533-.186.533-.186s-.194-.082-.533-.187-.822-.237-1.403-.357a18.177 18.177 0 0 0-1.871-.277 2.63 2.63 0 0 0-.142-.368c.383-.492.741-1.004 1.072-1.533.31-.505.548-.945.702-1.263.154-.319.229-.516.229-.516s-.194.085-.506.253c-.42.24-.827.5-1.22.78-.441.308-.926.692-1.42 1.118a2.638 2.638 0 0 0-.294-.126 18.9 18.9 0 0 0-.266-1.776 18.319 18.319 0 0 0-.357-1.401c-.103-.339-.186-.53-.186-.53s-.082.192-.187.53c-.105.337-.235.821-.355 1.401a17.95 17.95 0 0 0-.263 1.743c-.166.05-.327.118-.479.202-.506-.38-.997-.73-1.443-1.002a14.73 14.73 0 0 0-1.265-.703 7.504 7.504 0 0 0-.515-.228s.084.19.259.505.438.735.777 1.22c.302.43.678.903 1.093 1.39a2.486 2.486 0 0 0-.116.33c-.642.069-1.243.158-1.764.266-.58.126-1.064.253-1.403.355-.34.102-.532.187-.532.187s.193.08.532.186c.339.105.822.235 1.403.355.6.12 1.204.21 1.813.27.052.137.115.269.19.394-.408.532-.77 1.05-1.06 1.517-.31.505-.548.945-.703 1.263a7.164 7.164 0 0 0-.229.515s.191-.085.5-.253a13.72 13.72 0 0 0 1.222-.776 18.578 18.578 0 0 0 1.496-1.181c.065.026.136.04.203.063.06.64.154 1.275.281 1.904.095.473.215.94.358 1.401.105.34.187.532.187.532s.083-.193.186-.532c.144-.46.263-.928.358-1.4.13-.641.225-1.289.285-1.94.098-.035.193-.078.285-.126.516.404 1.054.78 1.61 1.126.506.31.947.547 1.266.702.318.154.515.228.515.228s-.084-.193-.254-.505c-.17-.312-.436-.736-.775-1.22a18.488 18.488 0 0 0-1.206-1.54c.027-.056.05-.112.072-.17.644-.06 1.283-.154 1.917-.281zM23.356 58.84l-.236-.893h-1.19l-.24.893h-.857l1.285-5.067h.827l1.267 5.067h-.856zm-.834-3.654-.386 1.874h.773l-.387-1.874zM27.745 58.48c-.27.24-.703.36-1.3.36-.599 0-1.024-.117-1.276-.352-.263-.24-.392-.61-.392-1.122v-2.117a1.863 1.863 0 0 1 .165-.853 1 1 0 0 1 .532-.472c.311-.11.641-.162.971-.15.607 0 1.043.12 1.309.36s.4.63.4 1.176h-.903a1.198 1.198 0 0 0-.062-.423.444.444 0 0 0-.236-.24 1.245 1.245 0 0 0-.514-.084 1.12 1.12 0 0 0-.485.084.44.44 0 0 0-.23.24 1.154 1.154 0 0 0-.061.413v2.038c-.005.14.016.28.061.414a.437.437 0 0 0 .23.24c.153.063.32.09.485.082.309 0 .52-.06.638-.182a.807.807 0 0 0 .174-.574h.896c.003.532-.13.92-.402 1.162zM28.716 58.84v-5.067h1.126v5.067zM33.935 58.48c-.27.24-.705.36-1.302.36-.597 0-1.02-.115-1.27-.346-.262-.24-.393-.61-.393-1.122v-2.123a1.862 1.862 0 0 1 .166-.853c.113-.216.302-.384.532-.472.311-.11.64-.161.971-.15.606 0 1.042.12 1.309.36.265.24.399.63.399 1.176h-.896a1.198 1.198 0 0 0-.062-.423.444.444 0 0 0-.236-.24 1.248 1.248 0 0 0-.514-.084 1.12 1.12 0 0 0-.485.084.45.45 0 0 0-.231.24 1.154 1.154 0 0 0-.062.413v2.038c-.005.14.016.28.062.414a.448.448 0 0 0 .23.24c.154.063.32.09.486.082.307 0 .52-.06.636-.182.117-.122.176-.313.176-.574h.896c-.004.532-.141.92-.412 1.162zM70.946 34.628h2.252v16.33h-2.252zM76.759 38.779l.13 1.228a2.76 2.76 0 0 1 1.365-1.124 5.547 5.547 0 0 1 1.936-.312c1.469 0 2.547.336 3.235 1.01.688.673 1.033 1.8 1.034 3.383v7.993h-2.112v-7.973c0-.847-.223-1.492-.67-1.937-.448-.444-1.059-.666-1.834-.665-.837 0-1.52.222-2.047.665-.524.446-.792 1.083-.792 1.917v7.993h-2.117V38.78h1.872zM88.564 36.318v2.361h2.013v1.88h-2.013v6.906c0 .557.116.967.348 1.231.232.265.62.397 1.164.398.093 0 .286-.014.577-.042v1.843c-.29.04-.582.06-.875.062-1.114 0-1.904-.296-2.369-.887-.465-.592-.697-1.437-.697-2.537V36.55l1.852-.231zM100.162 50.567c-.76.635-1.96.952-3.599.953-1.166 0-2.096-.15-2.79-.45a2.884 2.884 0 0 1-1.518-1.445c-.317-.663-.476-1.558-.476-2.686v-3.895c0-1.57.41-2.708 1.229-3.414.819-.707 2.005-1.06 3.56-1.06 3.188 0 4.782 1.491 4.783 4.474v2.824h-7.49v1.03c0 .73.096 1.293.287 1.692.166.374.476.67.865.825.383.148.9.223 1.55.224.93 0 1.612-.154 2.049-.46.437-.307.656-.781.66-1.424h2.036c-.004 1.24-.386 2.178-1.146 2.812zm-.83-6.471v-1.048c0-1.029-.233-1.732-.698-2.109-.465-.377-1.155-.566-2.07-.568-.917 0-1.597.186-2.039.557-.442.37-.662 1.078-.659 2.12v1.048h5.466zM107.933 40.612c-.744 0-1.34.206-1.79.62-.45.413-.675 1.01-.676 1.791v7.934h-1.863V38.778h1.701l.08 1c.249-.385.595-.688.998-.874.459-.226.96-.34 1.466-.334a3.74 3.74 0 0 1 .822.084v2.02a4.543 4.543 0 0 0-.738-.062zM112.23 38.779l.132 1.228c.31-.507.79-.902 1.363-1.124a5.556 5.556 0 0 1 1.937-.312c1.467 0 2.546.336 3.236 1.01.69.672 1.034 1.8 1.034 3.383v7.993h-2.116v-7.973c0-.847-.224-1.492-.67-1.937-.448-.444-1.06-.666-1.835-.665-.835 0-1.517.222-2.045.665-.524.446-.786 1.083-.786 1.917v7.993h-2.12V38.78h1.87zM128.78 51.306l-.173-1.585c-.278.536-.71.979-1.239 1.274a3.755 3.755 0 0 1-1.975.525c-1.308 0-2.238-.279-2.79-.836-.553-.557-.873-1.28-.96-2.166a3.072 3.072 0 0 1-.02-.406 3.302 3.302 0 0 1 1.049-2.489c.696-.662 1.648-1.08 2.854-1.25a25.652 25.652 0 0 1 3.039-.193v-1.415c0-.77-.177-1.351-.529-1.744-.352-.392-.973-.588-1.863-.588-.647 0-1.143.153-1.488.46-.345.306-.51.852-.495 1.638h-2.003c-.043-1.359.28-2.358.97-2.998.688-.64 1.714-.96 3.077-.963 1.437 0 2.528.332 3.276.995.747.663 1.12 1.73 1.12 3.2v8.54h-1.85zm-1.713-5.406a8.35 8.35 0 0 0-1.369.182c-1.336.285-2.004.913-2.003 1.883-.002.1.004.2.02.3.016.41.239.784.593.996.398.22.85.327 1.304.312 1.05 0 1.8-.332 2.252-.995.453-.663.7-1.566.743-2.709a30.088 30.088 0 0 0-1.54.03zM134.735 36.318v2.361h2.014v1.88h-2.014v6.906c0 .557.116.967.348 1.231.232.265.62.397 1.164.398.093 0 .285-.014.577-.042v1.843c-.29.04-.582.06-.875.062-1.115 0-1.905-.296-2.37-.887-.464-.592-.696-1.437-.696-2.537V36.55l1.852-.231zM138.858 34.942c.219-.205.5-.316.792-.313.29-.009.572.1.79.303.225.224.344.544.324.871.015.324-.111.637-.342.847-.229.202-.518.31-.814.303a1.084 1.084 0 0 1-.771-.303 1.242 1.242 0 0 1-.323-.856c.003-.32.126-.626.342-.848l.002-.004zm-.165 3.784h1.86v12.231h-1.86v-12.23zM143.56 50.417c-.737-.734-1.105-1.957-1.105-3.67v-3.64c0-1.597.412-2.753 1.235-3.467.824-.714 2.008-1.071 3.551-1.07 1.544 0 2.728.357 3.55 1.07.823.713 1.235 1.87 1.236 3.467v3.64c0 1.699-.375 2.918-1.126 3.66-.751.741-1.971 1.112-3.66 1.113-1.72 0-2.947-.367-3.682-1.103zm5.768-1.338c.415-.442.622-1.22.622-2.332v-3.64c0-.727-.102-1.29-.306-1.69a1.611 1.611 0 0 0-.884-.814 5.498 5.498 0 0 0-3.038 0c-.391.149-.708.44-.884.814-.205.4-.307.963-.307 1.69v3.64c0 1.113.211 1.89.634 2.332.423.442 1.117.663 2.081.664.972 0 1.666-.221 2.082-.664zM156.147 38.779l.13 1.228a2.762 2.762 0 0 1 1.366-1.124 5.548 5.548 0 0 1 1.937-.312c1.467 0 2.546.336 3.236 1.01.69.673 1.035 1.8 1.035 3.383v7.993h-2.113v-7.973c0-.847-.224-1.492-.671-1.937-.447-.444-1.059-.666-1.835-.665-.836 0-1.518.222-2.046.665-.525.446-.793 1.083-.793 1.917v7.993h-2.114V38.78h1.868zM172.7 51.306l-.174-1.584c-.278.536-.71.978-1.24 1.273a3.759 3.759 0 0 1-1.971.525c-1.309 0-2.24-.279-2.792-.836-.552-.556-.872-1.278-.96-2.164a3.034 3.034 0 0 1-.021-.407 3.299 3.299 0 0 1 1.045-2.493c.697-.662 1.649-1.08 2.858-1.25a25.664 25.664 0 0 1 3.039-.193v-1.414c0-.77-.176-1.35-.529-1.743-.352-.392-.973-.588-1.864-.588-.646 0-1.143.153-1.488.46-.344.306-.513.853-.495 1.637h-2.006c-.042-1.358.28-2.357.97-2.996.69-.64 1.716-.96 3.08-.963 1.436 0 2.529.331 3.276.994.748.663 1.122 1.73 1.122 3.2v8.542h-1.85zm-1.715-5.403a8.36 8.36 0 0 0-1.369.182c-1.336.285-2.004.912-2.004 1.882-.002.1.005.2.02.3.016.41.24.784.594.995.398.218.85.325 1.304.31 1.05 0 1.8-.332 2.252-.995.453-.663.7-1.566.744-2.708-.575 0-1.088.011-1.54.034zM178.856 34.628v13.089c0 .479.098.808.298.984.2.177.54.265 1.026.265v1.991c-.869 0-1.542-.088-2.02-.264a1.78 1.78 0 0 1-1.038-.955c-.214-.458-.32-1.124-.32-2.001V34.628h2.054zM194.34 37.724a1.565 1.565 0 0 0-.874-.896c-.436-.199-1.091-.299-1.966-.3-.916 0-1.596.118-2.04.354-.432.22-.75.62-.874 1.1-.139.497-.208 1.223-.208 2.177v5.809c0 .94.076 1.662.229 2.168.134.482.458.884.894 1.11.445.235 1.112.352 2 .351.914 0 1.59-.089 2.028-.267.41-.153.73-.491.867-.917.146-.435.22-1.113.22-2.04h1.893c0 1.24-.1 2.208-.302 2.904-.202.697-.663 1.245-1.384 1.645-.721.399-1.831.598-3.329.598-1.513 0-2.633-.206-3.361-.62a2.906 2.906 0 0 1-1.426-1.761c-.221-.763-.332-1.827-.333-3.193v-5.765c0-1.295.135-2.338.406-3.129a3.18 3.18 0 0 1 1.52-1.805c.743-.412 1.808-.619 3.194-.619 1.36 0 2.396.175 3.111.524.715.35 1.208.861 1.477 1.537.271.677.414 1.585.427 2.723h-1.936c-.009-.725-.087-1.288-.233-1.688zM198.738 50.417c-.734-.734-1.102-1.957-1.103-3.67v-3.64c0-1.597.412-2.753 1.235-3.467.822-.714 2.006-1.071 3.55-1.07 1.546 0 2.73.357 3.553 1.07.823.713 1.234 1.87 1.234 3.467v3.64c0 1.699-.375 2.918-1.125 3.66-.75.741-1.97 1.112-3.661 1.113-1.718 0-2.946-.367-3.683-1.103zm5.77-1.338c.415-.442.622-1.22.623-2.332v-3.64c0-.727-.102-1.29-.305-1.69a1.609 1.609 0 0 0-.886-.814 5.5 5.5 0 0 0-3.039 0c-.39.15-.708.44-.884.814-.205.4-.307.963-.306 1.69v3.64c0 1.113.211 1.89.634 2.332.422.442 1.116.663 2.08.664.975 0 1.669-.221 2.083-.664zM211.512 34.628v13.089c0 .479.1.808.298.984.199.177.542.265 1.028.265v1.991c-.87 0-1.544-.088-2.021-.264a1.786 1.786 0 0 1-1.038-.955c-.213-.458-.32-1.124-.32-2.001V34.628h2.053zM216.58 34.628v13.089c0 .479.1.808.298.984.198.177.541.265 1.027.265v1.991c-.87 0-1.543-.088-2.02-.264a1.786 1.786 0 0 1-1.039-.955c-.213-.458-.319-1.124-.319-2.001V34.628h2.053zM226.851 50.567c-.759.635-1.959.952-3.598.953-1.168 0-2.098-.15-2.791-.45a2.889 2.889 0 0 1-1.518-1.445c-.318-.663-.476-1.558-.476-2.686v-3.895c0-1.57.41-2.708 1.23-3.414.818-.707 2.005-1.06 3.558-1.06 3.19 0 4.785 1.491 4.785 4.474v2.824h-7.486v1.03c0 .73.097 1.293.289 1.692.165.374.475.67.863.825.384.148.9.223 1.55.224.932 0 1.614-.154 2.05-.46.434-.307.654-.781.659-1.424h2.038c-.007 1.24-.391 2.178-1.153 2.812zm-.83-6.475v-1.048c0-1.029-.233-1.731-.697-2.109-.465-.377-1.156-.566-2.071-.568-.917 0-1.596.186-2.039.557-.442.371-.661 1.078-.659 2.12v1.052l5.466-.004zM230.297 50.483c-.754-.732-1.131-1.807-1.13-3.226v-4.149c0-1.62.384-2.782 1.151-3.484.768-.702 1.847-1.053 3.238-1.053.7-.015 1.394.14 2.017.452.54.26.953.716 1.151 1.269l.264-1.506h1.75v13.013c0 1.65-.42 2.86-1.262 3.635-.841.773-2.015 1.158-3.52 1.154-1.435 0-2.529-.29-3.281-.87-.753-.58-1.16-1.537-1.22-2.87h2.018c.059.702.299 1.19.72 1.462.422.271 1.016.408 1.785.408.915 0 1.61-.219 2.083-.656.473-.438.71-1.194.71-2.269V49.88c-.176.459-.538.857-1.086 1.194-.548.337-1.22.505-2.017.505-1.494 0-2.618-.365-3.37-1.096zm5.586-1.536c.503-.48.754-1.335.753-2.568v-2.777c0-1.118-.23-1.91-.687-2.376-.459-.466-1.153-.713-2.083-.74-.917 0-1.576.186-1.98.558-.402.373-.605 1.056-.609 2.048v3.933c0 .947.2 1.624.6 2.032.399.408.997.612 1.795.613.972-.003 1.709-.245 2.21-.725v.002zM248.81 50.567c-.76.635-1.96.952-3.6.953-1.165 0-2.095-.15-2.79-.45a2.892 2.892 0 0 1-1.516-1.445c-.318-.663-.477-1.558-.476-2.686v-3.895c0-1.57.41-2.708 1.23-3.414.82-.707 2.005-1.06 3.558-1.06 3.19 0 4.784 1.491 4.784 4.474v2.824h-7.484v1.03c0 .73.095 1.293.287 1.692.165.374.475.67.863.825.384.148.9.223 1.55.224.93 0 1.614-.154 2.05-.46.435-.307.653-.781.652-1.424h2.037c-.003 1.24-.385 2.178-1.145 2.812zm-.83-6.475v-1.048c0-1.029-.233-1.731-.698-2.109-.464-.377-1.155-.566-2.071-.568-.915 0-1.594.186-2.037.557-.442.371-.662 1.078-.659 2.12v1.052l5.465-.004z" fill="#FFF"/>
        <path fill="#EA2127" d="M70.383 30.687H250v1.689H70.383z"/>
        <path d="M80.754 23.486h-7.198l-1.215 4.386h-3.084l6.386-23.649h3.024l6.356 23.644h-3.054l-1.215-4.38zm-5.235-7.697-1.215 4.937h5.671l-1.247-5.029-1.588-7.61-1.62 7.702zM97.585 27.005l-.186-1.788c-.498.788-1.14 1.333-1.927 1.636a7.594 7.594 0 0 1-2.733.454c-2.072 0-3.594-.49-4.567-1.468-.973-.98-1.46-2.62-1.46-4.92V9.29h2.982v11.596c0 1.231.316 2.17.947 2.816.632.647 1.497.969 2.594.967 1.182 0 2.145-.323 2.89-.97.744-.645 1.117-1.574 1.118-2.784V9.29h2.982v17.714h-2.64zM108.816 11.928c-1.05 0-1.854.246-2.413.738-.559.493-.837 1.23-.834 2.212 0 .655.154 1.136.463 1.443.302.303.69.507 1.113.584.433.084 1.186.166 2.257.245 1.026.076 2.041.262 3.027.554a4.342 4.342 0 0 1 2.133 1.489c.576.727.865 1.767.866 3.12 0 1.821-.582 3.203-1.746 4.146-1.165.943-2.715 1.413-4.651 1.413-2.082 0-3.674-.477-4.775-1.43-1.102-.952-1.695-2.38-1.779-4.284h2.967c.085 1.065.445 1.838 1.081 2.32.636.48 1.472.72 2.508.719 1.09 0 1.94-.257 2.55-.77.608-.512.912-1.208.911-2.087 0-.962-.376-1.613-1.128-1.952-.751-.339-1.818-.559-3.199-.66-1.524-.101-2.827-.49-3.909-1.166-1.082-.677-1.623-1.906-1.622-3.687 0-1.7.536-3.056 1.607-4.07 1.07-1.013 2.626-1.518 4.666-1.514 2.06 0 3.59.455 4.59 1.367 1 .911 1.478 2.216 1.436 3.913h-2.812c0-1.761-1.102-2.642-3.307-2.643zM120.591 6.475v3.45h3.157v2.746h-3.157v10.104c0 .814.183 1.415.548 1.8.364.386.974.58 1.828.58.146 0 .448-.02.907-.06v2.686c-.456.058-.916.088-1.376.09-1.75 0-2.992-.432-3.724-1.296-.732-.865-1.096-2.101-1.094-3.708V6.81l2.911-.335zM132.852 12.257c-1.156 0-2.085.303-2.785.908-.7.606-1.05 1.473-1.05 2.6v11.544h-2.89V9.59h2.647l.125 1.453a3.656 3.656 0 0 1 1.553-1.272 5.318 5.318 0 0 1 2.279-.481c.429-.002.857.04 1.278.124v2.939a7.556 7.556 0 0 0-1.157-.097zM144.857 27.558l-.254-2.272c-.351.718-.945 1.327-1.78 1.828a5.39 5.39 0 0 1-2.833.757c-1.878 0-3.214-.4-4.008-1.198-.794-.798-1.253-1.832-1.378-3.102a4.12 4.12 0 0 1-.031-.583c0-1.43.5-2.623 1.502-3.578 1.002-.955 2.369-1.554 4.101-1.797.95-.142 2.404-.235 4.365-.277v-2.019c0-1.106-.255-1.94-.764-2.504-.508-.564-1.399-.845-2.67-.844-.93 0-1.641.22-2.137.66-.495.44-.732 1.223-.712 2.35h-2.879c-.063-1.946.404-3.38 1.4-4.3.995-.92 2.47-1.383 4.426-1.388 2.064 0 3.633.475 4.707 1.427 1.075.952 1.611 2.483 1.61 4.593v12.253l-2.665-.006zm-2.46-7.755c-.661.033-1.32.12-1.966.26-1.919.411-2.878 1.312-2.88 2.703-.003.144.008.288.033.43.06.655.344 1.131.85 1.429.507.298 1.131.446 1.873.444 1.506 0 2.585-.476 3.235-1.427.65-.952 1.006-2.247 1.067-3.885-.825.004-1.562.02-2.212.046zM153.981 4.223v18.959c0 .696.15 1.171.448 1.427.299.255.812.381 1.54.378v2.885c-1.303 0-2.313-.126-3.03-.379a2.641 2.641 0 0 1-1.558-1.386c-.32-.664-.48-1.63-.48-2.9V4.223h3.08zM158.737 4.126c.329-.305.753-.47 1.19-.465.436-.013.86.147 1.19.45.321.298.482.727.482 1.286 0 .538-.171.956-.514 1.255-.342.3-.775.46-1.22.45-.426.01-.84-.151-1.16-.45-.322-.3-.483-.717-.483-1.255a1.63 1.63 0 0 1 .515-1.271zm-.25 5.611h2.791v18.135h-2.791V9.737zM174.137 27.558l-.247-2.27c-.351.717-.945 1.326-1.782 1.826a5.407 5.407 0 0 1-2.835.757c-1.88 0-3.217-.399-4.012-1.197-.795-.798-1.255-1.831-1.379-3.1a4.348 4.348 0 0 1-.03-.583c0-1.43.5-2.621 1.502-3.576 1.002-.954 2.37-1.553 4.105-1.796.95-.142 2.405-.234 4.367-.276v-2.018c0-1.105-.254-1.94-.763-2.503-.51-.563-1.4-.844-2.674-.844-.933 0-1.646.22-2.137.66-.492.44-.729 1.219-.712 2.337h-2.882c-.061-1.945.405-3.377 1.4-4.297.995-.92 2.472-1.382 4.43-1.387 2.065 0 3.636.475 4.71 1.426 1.076.951 1.61 2.483 1.604 4.595v12.246h-2.665zm-2.462-7.75c-.662.032-1.32.12-1.967.26-1.92.41-2.881 1.311-2.881 2.701-.003.144.007.288.03.43.063.654.346 1.13.852 1.428.506.298 1.13.444 1.874.439 1.508 0 2.587-.476 3.238-1.427.65-.95 1.007-2.245 1.07-3.882-.827.008-1.565.024-2.216.05zM183.389 9.592l.186 1.786a3.92 3.92 0 0 1 1.925-1.636 7.598 7.598 0 0 1 2.733-.45c2.07 0 3.592.49 4.565 1.47.973.98 1.46 2.619 1.459 4.918V27.31h-2.981V15.71c0-1.23-.316-2.17-.947-2.815-.632-.647-1.496-.97-2.594-.97-1.179 0-2.141.323-2.888.97-.746.646-1.12 1.573-1.123 2.78v11.629h-2.98V9.592h2.645zM215.89 8.096c-.212-.57-.632-.999-1.263-1.284-.631-.285-1.578-.428-2.841-.429-1.323 0-2.305.168-2.946.503a2.459 2.459 0 0 0-1.263 1.576c-.2.716-.3 1.756-.3 3.122v8.326c0 1.347.11 2.383.331 3.106a2.558 2.558 0 0 0 1.292 1.592c.642.335 1.604.503 2.886.503 1.322 0 2.3-.126 2.931-.378a2.09 2.09 0 0 0 1.262-1.315c.21-.622.315-1.596.315-2.923h2.735c0 1.775-.145 3.162-.435 4.162-.29 1-.956 1.785-1.998 2.357-1.043.57-2.646.857-4.81.858-2.184 0-3.802-.296-4.855-.888-1.052-.592-1.738-1.434-2.059-2.526-.32-1.09-.48-2.615-.48-4.575v-8.265c0-1.858.195-3.353.587-4.484a4.565 4.565 0 0 1 2.193-2.586c1.07-.591 2.609-.887 4.614-.888 1.964 0 3.462.251 4.493.755 1.032.503 1.744 1.237 2.135 2.203.39.97.596 2.27.618 3.9h-2.796c-.021-1.044-.137-1.852-.347-2.422zM222.363 4.126c.329-.305.753-.47 1.19-.465.436-.013.86.147 1.19.45.321.298.482.727.482 1.286 0 .538-.171.956-.514 1.255-.342.3-.775.46-1.22.45-.426.01-.84-.151-1.16-.45-.321-.3-.482-.717-.482-1.255a1.628 1.628 0 0 1 .514-1.271zm-.25 5.611h2.785v18.135h-2.791l.006-18.135zM231.516 6.475v3.45h3.155v2.746h-3.155v10.104c0 .814.183 1.415.547 1.8.365.386.974.58 1.828.58.145 0 .448-.02.906-.06v2.686a11.58 11.58 0 0 1-1.375.09c-1.75 0-2.99-.432-3.724-1.296-.734-.865-1.099-2.101-1.094-3.708V6.81l2.912-.335zM245.266 15.358l1.73-5.504H250l-5.553 17.725-1.063 3.356c-.404 1.25-.914 2.179-1.532 2.784a3.143 3.143 0 0 1-2.291.908c-.728 0-1.608-.201-2.64-.605l.516-2.451c.647.243 1.133.365 1.457.364.914 0 1.562-.615 1.942-1.845l.728-2.511-5.64-17.725h3.156l1.7 5.686 2.274 8.197c.423-2.157 1.16-4.95 2.212-8.379zM89.174 60.328c.018.451-.098.898-.33 1.275a1.91 1.91 0 0 1-1.015.734v.02a.935.935 0 0 1 .29.2c.107.113.198.242.273.382.121.223.23.454.324.691l.811 1.967h-1.361l-.589-1.463a6.313 6.313 0 0 0-.521-1.083 1.388 1.388 0 0 0-.275-.311.852.852 0 0 0-.344-.153 2.848 2.848 0 0 0-.566-.045h-.172v3.055h-1.24v-7.32h2.555c.69 0 1.222.176 1.597.53.374.352.562.86.563 1.521zm-1.282.09c0-.32-.08-.55-.238-.693-.16-.143-.41-.215-.75-.216h-1.205v1.862h1.055c.375 0 .658-.072.85-.215.193-.144.29-.39.288-.739zM92.715 59.515v6.082h-1.307v-6.082h-1.881v-1.238h5.068v1.238zM95.159 61.994a4.63 4.63 0 0 1 .38-1.943 2.968 2.968 0 0 1 5.433-.006 5.002 5.002 0 0 1 .007 3.805c-.226.523-.598.97-1.07 1.287a2.913 2.913 0 0 1-1.64.459 2.977 2.977 0 0 1-1.647-.454 2.934 2.934 0 0 1-1.084-1.273 4.417 4.417 0 0 1-.38-1.875zm3.092-2.455a1.498 1.498 0 0 0-.944.31c-.28.224-.493.521-.614.859-.146.4-.217.823-.208 1.248a3.51 3.51 0 0 0 .208 1.254c.12.338.333.636.614.859.276.209.614.318.96.31.343.007.677-.102.95-.309a1.9 1.9 0 0 0 .614-.86c.147-.407.218-.838.21-1.272a3.42 3.42 0 0 0-.21-1.236 1.93 1.93 0 0 0-.614-.86 1.519 1.519 0 0 0-.966-.306v.003zM107.65 59.504c-.321-.009-.634.1-.882.308a1.872 1.872 0 0 0-.548.853c-.129.4-.191.82-.184 1.242-.009.442.055.883.188 1.304.1.332.29.629.549.856.242.202.547.31.86.302.228.002.453-.058.652-.173.206-.122.38-.291.51-.494a2.28 2.28 0 0 0 .312-.762l1.253.333a3.286 3.286 0 0 1-.507 1.224c-.235.343-.55.623-.918.813-.394.197-.83.295-1.27.286a2.767 2.767 0 0 1-1.58-.444 2.774 2.774 0 0 1-1.007-1.282 5.196 5.196 0 0 1-.347-1.991 4.736 4.736 0 0 1 .358-1.919c.212-.507.567-.94 1.02-1.242a2.788 2.788 0 0 1 1.557-.44c.685 0 1.25.174 1.691.524.442.35.752.867.93 1.552l-1.25.338c-.207-.791-.67-1.187-1.387-1.188zM110.924 63.016a2.666 2.666 0 0 1 .302-1.275c.383-.759 1.264-1.239 2.221-1.21.483-.011.958.101 1.366.323.385.217.69.526.877.889.206.403.309.84.3 1.282.01.453-.094.902-.304 1.317-.39.763-1.265 1.255-2.23 1.255-.966 0-1.84-.492-2.231-1.255a2.806 2.806 0 0 1-.3-1.326zm2.52-1.447a1.038 1.038 0 0 0-.594.176c-.19.135-.332.312-.413.513-.108.252-.16.52-.152.789a2 2 0 0 0 .14.782c.077.2.217.378.404.513.175.12.392.183.616.18.224.003.443-.06.62-.178.192-.133.335-.311.413-.512a2.204 2.204 0 0 0 0-1.565c-.08-.2-.221-.379-.41-.515a1.086 1.086 0 0 0-.625-.183zM121.059 65.47h-1.131v-.627h-.017a1.534 1.534 0 0 1-1.373.753 1.66 1.66 0 0 1-1.024-.339 2.22 2.22 0 0 1-.705-.967 3.917 3.917 0 0 1-.254-1.472 3.726 3.726 0 0 1 .245-1.4c.141-.374.382-.698.695-.938a1.698 1.698 0 0 1 1.035-.33c.516-.01 1.003.24 1.303.669h.013v-2.542h1.213v7.193zm-2.227-4.225a.854.854 0 0 0-.763.44c-.181.293-.272.693-.272 1.2-.007.295.035.589.123.87.064.213.185.403.349.55.15.125.34.192.533.188a.87.87 0 0 0 .783-.42c.18-.283.27-.687.27-1.214a2.554 2.554 0 0 0-.123-.846 1.307 1.307 0 0 0-.368-.566.79.79 0 0 0-.536-.202h.004zM123.846 64.615c.46.027.876-.256.992-.675l1.221.2a2.075 2.075 0 0 1-.794 1.082c-.395.258-.868.389-1.348.374a2.416 2.416 0 0 1-1.265-.31 1.932 1.932 0 0 1-.772-.874 3.133 3.133 0 0 1-.257-1.319c-.006-.44.085-.876.268-1.282a2.2 2.2 0 0 1 .783-.932c.359-.236.788-.359 1.226-.35.414-.009.822.095 1.175.3.346.212.615.516.775.874.195.44.288.915.275 1.392v.393h-3.26c.007.3.112.589.301.83a.864.864 0 0 0 .68.297zm-.976-2.056h2.028a1.225 1.225 0 0 0-.304-.774.925.925 0 0 0-.694-.27.955.955 0 0 0-.694.277 1.2 1.2 0 0 0-.336.767zM129.505 61.904v-1.375h1.25v1.375h-1.25zm0 3.693V64.22h1.25v1.376h-1.25zM136.711 64.447c.636 0 .974-.665 1.013-1.997-.275.387-.74.61-1.228.59a1.704 1.704 0 0 1-.99-.302 2.032 2.032 0 0 1-.686-.835c-.17-.38-.255-.789-.248-1.202-.007-.427.087-.85.275-1.238.172-.353.442-.653.78-.867a2.147 2.147 0 0 1 1.171-.318 1.898 1.898 0 0 1 1.691.904c.39.603.586 1.504.586 2.701a6.367 6.367 0 0 1-.281 2.03 2.593 2.593 0 0 1-.83 1.255c-.378.29-.851.442-1.335.428a1.934 1.934 0 0 1-.923-.22 1.807 1.807 0 0 1-.67-.624 2.225 2.225 0 0 1-.33-.94l1.273-.142c.026.212.11.413.244.584a.626.626 0 0 0 .488.193zm.083-2.461a.793.793 0 0 0 .639-.291c.164-.194.245-.485.245-.874a2.235 2.235 0 0 0-.116-.772 1.06 1.06 0 0 0-.316-.476.703.703 0 0 0-.452-.159.78.78 0 0 0-.658.332c-.162.222-.244.538-.244.948 0 .862.3 1.293.902 1.292zM141.572 65.597v-5.262c-.264.247-.565.46-.894.635-.325.179-.674.32-1.038.423V60.13c.5-.183.965-.433 1.38-.74.389-.298.68-.682.84-1.114h1.158v7.319h-1.446zM147.605 62.14a10.096 10.096 0 0 0-.657 3.457h-1.328c.025-1.067.218-2.123.573-3.13.35-1.02.85-1.985 1.482-2.864h-2.968v-1.326h4.505v1.027c-.63.703-1.165 1.648-1.607 2.836zM152.668 62.14a10.097 10.097 0 0 0-.657 3.457h-1.33c.026-1.067.22-2.123.575-3.13.35-1.02.848-1.985 1.48-2.864h-2.961v-1.326h4.504v1.027c-.633.703-1.17 1.648-1.611 2.836zM156.98 64.448c.635 0 .973-.666 1.012-1.998-.275.387-.738.61-1.226.59a1.7 1.7 0 0 1-.99-.302 2.032 2.032 0 0 1-.686-.835c-.17-.38-.254-.789-.247-1.202a2.73 2.73 0 0 1 .274-1.238 2.12 2.12 0 0 1 .78-.867 2.145 2.145 0 0 1 1.17-.318 1.893 1.893 0 0 1 1.691.904c.391.603.587 1.504.587 2.701a6.369 6.369 0 0 1-.28 2.03c-.19.552-.466.97-.83 1.255-.378.29-.851.442-1.335.428a1.832 1.832 0 0 1-1.597-.848 2.224 2.224 0 0 1-.329-.94l1.273-.142c.026.212.11.414.245.584a.621.621 0 0 0 .489.198zm.083-2.462a.793.793 0 0 0 .64-.291c.162-.193.244-.485.244-.874a2.234 2.234 0 0 0-.117-.771 1.06 1.06 0 0 0-.316-.477.701.701 0 0 0-.451-.159.776.776 0 0 0-.65.332c-.163.222-.244.538-.245.948-.005.862.293 1.293.893 1.292h.002zM161.6 65.597l1.77-7.32h1.044l-1.79 7.32zM170.149 59.5c-.322-.009-.635.101-.882.309a1.872 1.872 0 0 0-.55.852c-.128.401-.19.82-.183 1.242-.009.443.055.883.189 1.304.1.332.29.628.547.857.242.202.548.31.862.302.228.001.453-.059.65-.174a1.52 1.52 0 0 0 .513-.494c.148-.233.253-.49.31-.762l1.255.333a3.326 3.326 0 0 1-.507 1.224c-.235.344-.55.623-.918.813a2.72 2.72 0 0 1-1.27.29 2.77 2.77 0 0 1-1.581-.444 2.78 2.78 0 0 1-1.006-1.282 5.194 5.194 0 0 1-.347-1.991 4.734 4.734 0 0 1 .358-1.919c.211-.509.566-.943 1.02-1.248a2.794 2.794 0 0 1 1.56-.434c.686 0 1.25.175 1.693.524.442.35.751.867.929 1.552l-1.254.334c-.208-.79-.67-1.187-1.388-1.188zM178.7 60.328c.019.451-.097.898-.328 1.275a1.91 1.91 0 0 1-1.016.734v.02a.908.908 0 0 1 .29.2c.107.113.198.242.273.382.121.223.23.454.324.691l.811 1.967h-1.361l-.589-1.463a6.313 6.313 0 0 0-.521-1.083 1.388 1.388 0 0 0-.275-.311.852.852 0 0 0-.344-.153 2.848 2.848 0 0 0-.566-.045h-.172v3.055h-1.24v-7.32h2.555c.69 0 1.222.176 1.597.53.374.352.562.86.563 1.521zm-1.28.09c0-.32-.08-.55-.24-.693-.158-.143-.409-.215-.75-.216h-1.201v1.862h1.054c.375 0 .659-.072.851-.215.193-.144.288-.39.285-.739zM180.18 65.597v-7.32h1.126v7.32zM185.352 59.5c-.321-.008-.634.101-.882.309a1.872 1.872 0 0 0-.549.852c-.128.401-.19.82-.183 1.242-.01.443.055.883.188 1.304.1.332.29.629.549.857.242.202.547.309.86.302.228.001.453-.059.652-.174.206-.122.38-.29.51-.494a2.28 2.28 0 0 0 .312-.762l1.254.333a3.307 3.307 0 0 1-.507 1.224c-.235.344-.55.623-.918.813a2.716 2.716 0 0 1-1.27.29 2.768 2.768 0 0 1-1.58-.444 2.774 2.774 0 0 1-1.008-1.282 5.195 5.195 0 0 1-.346-1.991 4.735 4.735 0 0 1 .357-1.919c.212-.51.567-.944 1.022-1.248a2.789 2.789 0 0 1 1.558-.434c.686 0 1.25.175 1.692.524.442.35.752.867.93 1.552l-1.253.334c-.208-.79-.67-1.187-1.388-1.188zM189.19 61.996a4.652 4.652 0 0 1 .379-1.944 2.971 2.971 0 0 1 5.437-.006 4.997 4.997 0 0 1 0 3.807 2.948 2.948 0 0 1-1.07 1.284 2.914 2.914 0 0 1-1.64.459 2.984 2.984 0 0 1-1.65-.454 2.948 2.948 0 0 1-1.083-1.274 4.436 4.436 0 0 1-.373-1.872zm3.094-2.456a1.504 1.504 0 0 0-.946.31c-.28.223-.493.52-.614.859-.148.401-.22.826-.212 1.254-.007.427.063.852.208 1.254.12.339.333.637.615.86.275.209.614.318.96.31.343.007.678-.102.95-.309a1.9 1.9 0 0 0 .615-.86c.147-.408.218-.84.21-1.273a3.422 3.422 0 0 0-.21-1.237 1.928 1.928 0 0 0-.615-.86 1.52 1.52 0 0 0-.96-.312v.004zM198.384 59.46a1.214 1.214 0 0 0-.685.182.625.625 0 0 0-.15.895c.118.129.266.228.43.287.282.113.571.205.866.275.464.105.908.282 1.317.524.288.174.518.43.66.733.137.336.201.697.19 1.06.016.433-.105.861-.346 1.223a2.05 2.05 0 0 1-.911.723 3.234 3.234 0 0 1-1.236.235c-.724 0-1.309-.206-1.755-.617-.446-.41-.718-.998-.818-1.76l1.284-.175c.076.463.218.804.428 1.023.21.218.51.328.895.328.211.004.421-.033.618-.109a.942.942 0 0 0 .417-.306c.099-.136.15-.3.147-.468a.74.74 0 0 0-.524-.798 6.366 6.366 0 0 0-.973-.316 4.172 4.172 0 0 1-1.236-.512 1.787 1.787 0 0 1-.643-.7 2.121 2.121 0 0 1-.19-.926 1.97 1.97 0 0 1 .268-1.027c.185-.306.458-.551.782-.703a2.765 2.765 0 0 1 1.228-.253c.685 0 1.23.175 1.634.524.405.35.658.856.76 1.52l-1.284.16c-.04-.367-.155-.63-.344-.79-.188-.16-.465-.237-.83-.233zM202.703 61.904v-1.375h1.25v1.375h-1.25zm0 3.693V64.22h1.25v1.376h-1.25zM206.644 61.932c0-1.248.19-2.168.572-2.761a1.866 1.866 0 0 1 1.674-.893c.762 0 1.33.3 1.701.902.372.6.558 1.52.558 2.757 0 1.278-.194 2.207-.582 2.787-.372.545-1 .873-1.674.873a2.024 2.024 0 0 1-1.675-.873c-.383-.574-.575-1.505-.574-2.792zm1.338.108c-.008.477.023.954.095 1.427.031.272.132.532.293.756.126.15.316.235.515.23a.66.66 0 0 0 .54-.241c.162-.235.262-.505.29-.786.07-.492.1-.988.09-1.484a9.82 9.82 0 0 0-.09-1.521c-.06-.364-.154-.621-.283-.772a.653.653 0 0 0-.515-.227.704.704 0 0 0-.53.207c-.134.14-.235.397-.303.774-.079.542-.113 1.09-.102 1.637zM216.215 63.332a2.53 2.53 0 0 1-.275 1.217 1.842 1.842 0 0 1-.783.779 2.542 2.542 0 0 1-1.204.268 2.437 2.437 0 0 1-1.072-.23 1.94 1.94 0 0 1-.782-.689 2.551 2.551 0 0 1-.387-1.114l1.281-.162c.015.285.122.558.305.78.163.178.4.275.645.266a.809.809 0 0 0 .493-.157c.145-.112.257-.259.324-.427.077-.189.116-.391.113-.595a1.2 1.2 0 0 0-.129-.552.91.91 0 0 0-.35-.376 1.007 1.007 0 0 0-.531-.138h-.604l.14-1.056c.445 0 .77-.08.975-.238a.823.823 0 0 0 .307-.694.781.781 0 0 0-.21-.572.75.75 0 0 0-.563-.215.784.784 0 0 0-.599.259 1.208 1.208 0 0 0-.286.699l-1.227-.226c.12-.628.365-1.098.731-1.41a2.102 2.102 0 0 1 1.42-.47c.374-.008.744.074 1.077.238.298.149.545.377.713.658.17.29.256.62.25.955a1.582 1.582 0 0 1-1.058 1.522c.38.072.718.282.947.586.23.32.35.704.34 1.094zM221.283 63.428c.008.39-.09.777-.281 1.123-.182.323-.455.59-.788.77-.35.187-.746.282-1.147.276a2.555 2.555 0 0 1-1.17-.265 1.986 1.986 0 0 1-.819-.749 2.056 2.056 0 0 1-.298-1.106c-.012-.4.087-.797.289-1.148.195-.318.487-.57.837-.722a1.57 1.57 0 0 1-.702-.59 1.617 1.617 0 0 1-.24-.89 1.864 1.864 0 0 1 .244-.955c.164-.281.41-.51.707-.66a2.619 2.619 0 0 1 2.173 0c.3.148.548.376.716.656.172.293.259.625.253.961.005.307-.076.61-.236.876-.162.259-.4.466-.682.598.352.144.65.39.851.703.204.34.305.729.293 1.122zm-2.266-1.231a.8.8 0 0 0-.671.32c-.177.262-.263.57-.245.882-.004.196.037.39.12.569a.882.882 0 0 0 .82.52.829.829 0 0 0 .688-.295c.167-.23.25-.505.235-.784.003-.211-.034-.42-.111-.618a.99.99 0 0 0-.325-.434.829.829 0 0 0-.511-.16zm0-2.817a.768.768 0 0 0-.59.237.991.991 0 0 0 0 1.255.79.79 0 0 0 .587.227.84.84 0 0 0 .407-.1.746.746 0 0 0 .294-.3.986.986 0 0 0 .109-.479.838.838 0 0 0-.222-.613.782.782 0 0 0-.59-.224l.005-.003zM226.913 63.428c.008.391-.09.778-.282 1.123a1.98 1.98 0 0 1-.781.77 2.372 2.372 0 0 1-1.15.276 2.56 2.56 0 0 1-1.171-.265 2.004 2.004 0 0 1-.82-.749 2.054 2.054 0 0 1-.298-1.106c-.013-.4.087-.797.289-1.148.195-.318.488-.57.838-.722a1.57 1.57 0 0 1-.703-.59 1.626 1.626 0 0 1-.24-.89c-.006-.334.079-.663.246-.955.163-.282.41-.511.708-.66a2.622 2.622 0 0 1 2.173 0c.3.148.55.376.717.656.173.293.26.625.253.961.006.307-.076.61-.236.876-.163.259-.4.466-.683.598.353.143.651.39.852.703.203.34.303.73.288 1.122zm-2.269-1.231a.792.792 0 0 0-.671.32 1.41 1.41 0 0 0-.246.882c-.004.196.037.39.12.569a.886.886 0 0 0 .82.52.829.829 0 0 0 .69-.295c.167-.23.25-.505.236-.784a1.61 1.61 0 0 0-.113-.618.98.98 0 0 0-.325-.434.829.829 0 0 0-.51-.16zm0-2.817a.764.764 0 0 0-.588.237.993.993 0 0 0 0 1.255.799.799 0 0 0 .587.227.846.846 0 0 0 .409-.1.743.743 0 0 0 .293-.3.985.985 0 0 0 .109-.479.836.836 0 0 0-.221-.613.786.786 0 0 0-.599-.224l.01-.003zM231.981 63.428c.008.39-.089.778-.28 1.123-.183.322-.456.59-.789.77-.35.187-.746.282-1.146.276a2.555 2.555 0 0 1-1.17-.265 1.986 1.986 0 0 1-.82-.749 2.056 2.056 0 0 1-.297-1.106c-.013-.4.086-.796.287-1.148a1.84 1.84 0 0 1 .839-.722 1.58 1.58 0 0 1-.704-.59 1.628 1.628 0 0 1-.24-.89c-.006-.334.079-.663.245-.955.164-.281.41-.51.708-.66a2.62 2.62 0 0 1 2.172 0c.3.148.549.376.717.656.171.293.258.625.252.961.006.31-.076.615-.238.882a1.62 1.62 0 0 1-.683.598c.353.144.65.39.852.703.204.339.306.725.295 1.116zm-2.27-1.231a.8.8 0 0 0-.67.32c-.178.262-.264.57-.245.882-.005.196.036.39.118.569a.89.89 0 0 0 .82.52.829.829 0 0 0 .69-.295c.167-.23.25-.505.235-.784.003-.211-.035-.42-.112-.618a.99.99 0 0 0-.325-.434.829.829 0 0 0-.511-.16zm0-2.817a.768.768 0 0 0-.589.237.991.991 0 0 0 0 1.255.79.79 0 0 0 .586.227.84.84 0 0 0 .407-.1.734.734 0 0 0 .293-.3.971.971 0 0 0 .11-.479.838.838 0 0 0-.222-.613.783.783 0 0 0-.585-.224v-.003zM236.334 61.099v-2.822h1.279v7.32h-1.28v-3.26h-2.51v3.26h-1.278v-7.32h1.279v2.822z" fill="#FFF"/>
    </g>
</svg>
